<svg width="31" height="31" viewBox="0 0 31 31" fill="none" xmlns="http://www.w3.org/2000/svg">
<path fill-rule="evenodd" clip-rule="evenodd" d="M6.60967 8.91625C6.30937 8.91625 6.02138 9.03554 5.80904 9.24788C5.5967 9.46022 5.47741 9.74821 5.47741 10.0485V22.8808C5.47741 23.5058 5.98466 24.013 6.60967 24.013H19.4419C19.7422 24.013 20.0302 23.8937 20.2426 23.6814C20.4549 23.4691 20.5742 23.1811 20.5742 22.8808V16.8421C20.5742 16.5418 20.6935 16.2538 20.9058 16.0414C21.1182 15.8291 21.4061 15.7098 21.7064 15.7098C22.0067 15.7098 22.2947 15.8291 22.5071 16.0414C22.7194 16.2538 22.8387 16.5418 22.8387 16.8421V22.8808C22.8387 23.7816 22.4808 24.6456 21.8438 25.2826C21.2068 25.9197 20.3428 26.2775 19.4419 26.2775H6.60967C5.70878 26.2775 4.8448 25.9197 4.20778 25.2826C3.57076 24.6456 3.21289 23.7816 3.21289 22.8808V10.0485C3.21289 9.14763 3.57076 8.28364 4.20778 7.64663C4.8448 7.00961 5.70878 6.65173 6.60967 6.65173H14.1581C14.4583 6.65173 14.7463 6.77102 14.9587 6.98336C15.171 7.1957 15.2903 7.4837 15.2903 7.78399C15.2903 8.08429 15.171 8.37228 14.9587 8.58462C14.7463 8.79696 14.4583 8.91625 14.1581 8.91625H6.60967Z" fill="#0B0808" fill-opacity="0.46"/>
<path fill-rule="evenodd" clip-rule="evenodd" d="M9.54459 19.866C9.64436 19.9764 9.76491 20.0661 9.89936 20.1299C10.0338 20.1936 10.1795 20.2303 10.3281 20.2377C10.4768 20.2452 10.6254 20.2232 10.7655 20.1732C10.9057 20.1231 11.0346 20.0459 11.1448 19.946L25.1033 7.31606V11.5583C25.1033 11.8585 25.2226 12.1465 25.435 12.3589C25.6473 12.5712 25.9353 12.6905 26.2356 12.6905C26.5359 12.6905 26.8239 12.5712 27.0362 12.3589C27.2486 12.1465 27.3678 11.8585 27.3678 11.5583V4.7647C27.3678 4.46441 27.2486 4.17642 27.0362 3.96408C26.8239 3.75174 26.5359 3.63245 26.2356 3.63245H19.442C19.1417 3.63245 18.8537 3.75174 18.6414 3.96408C18.4291 4.17642 18.3098 4.46441 18.3098 4.7647C18.3098 5.065 18.4291 5.35299 18.6414 5.56533C18.8537 5.77767 19.1417 5.89696 19.442 5.89696H23.2962L9.6246 18.2673C9.51419 18.367 9.42453 18.4876 9.36075 18.622C9.29696 18.7565 9.26031 18.9022 9.25288 19.0508C9.24545 19.1994 9.26738 19.3481 9.31744 19.4882C9.36749 19.6283 9.44468 19.7557 9.54459 19.866Z" fill="#0B0808" fill-opacity="0.46"/>
</svg>
