<svg width="301" height="72" viewBox="0 0 301 72" fill="none" xmlns="http://www.w3.org/2000/svg">
<path d="M15.168 53.336C12.704 53.336 10.496 52.936 8.544 52.136C6.592 51.336 5.024 50.152 3.84 48.584C2.688 47.016 2.08 45.128 2.016 42.92H10.752C10.88 44.168 11.312 45.128 12.048 45.8C12.784 46.44 13.744 46.76 14.928 46.76C16.144 46.76 17.104 46.488 17.808 45.944C18.512 45.368 18.864 44.584 18.864 43.592C18.864 42.76 18.576 42.072 18 41.528C17.456 40.984 16.768 40.536 15.936 40.184C15.136 39.832 13.984 39.432 12.48 38.984C10.304 38.312 8.528 37.64 7.152 36.968C5.776 36.296 4.592 35.304 3.6 33.992C2.608 32.68 2.112 30.968 2.112 28.856C2.112 25.72 3.248 23.272 5.52 21.512C7.792 19.72 10.752 18.824 14.4 18.824C18.112 18.824 21.104 19.72 23.376 21.512C25.648 23.272 26.864 25.736 27.024 28.904H18.144C18.08 27.816 17.68 26.968 16.944 26.36C16.208 25.72 15.264 25.4 14.112 25.4C13.12 25.4 12.32 25.672 11.712 26.216C11.104 26.728 10.8 27.48 10.8 28.472C10.8 29.56 11.312 30.408 12.336 31.016C13.36 31.624 14.96 32.28 17.136 32.984C19.312 33.72 21.072 34.424 22.416 35.096C23.792 35.768 24.976 36.744 25.968 38.024C26.96 39.304 27.456 40.952 27.456 42.968C27.456 44.888 26.96 46.632 25.968 48.2C25.008 49.768 23.6 51.016 21.744 51.944C19.888 52.872 17.696 53.336 15.168 53.336ZM66.6833 25.928C70.0113 25.928 72.6513 26.936 74.6033 28.952C76.5873 30.968 77.5793 33.768 77.5793 37.352V53H69.4193V38.456C69.4193 36.728 68.9553 35.4 68.0273 34.472C67.1313 33.512 65.8833 33.032 64.2833 33.032C62.6833 33.032 61.4193 33.512 60.4913 34.472C59.5953 35.4 59.1473 36.728 59.1473 38.456V53H50.9873V38.456C50.9873 36.728 50.5233 35.4 49.5953 34.472C48.6993 33.512 47.4513 33.032 45.8513 33.032C44.2513 33.032 42.9873 33.512 42.0593 34.472C41.1633 35.4 40.7153 36.728 40.7153 38.456V53H32.5073V26.216H40.7153V29.576C41.5473 28.456 42.6353 27.576 43.9793 26.936C45.3233 26.264 46.8433 25.928 48.5393 25.928C50.5553 25.928 52.3473 26.36 53.9153 27.224C55.5153 28.088 56.7633 29.32 57.6593 30.92C58.5873 29.448 59.8513 28.248 61.4513 27.32C63.0513 26.392 64.7953 25.928 66.6833 25.928ZM81.6878 39.56C81.6878 36.808 82.1998 34.392 83.2238 32.312C84.2798 30.232 85.7038 28.632 87.4958 27.512C89.2878 26.392 91.2878 25.832 93.4958 25.832C95.3838 25.832 97.0318 26.216 98.4398 26.984C99.8798 27.752 100.984 28.76 101.752 30.008V26.216H109.96V53H101.752V49.208C100.952 50.456 99.8318 51.464 98.3918 52.232C96.9838 53 95.3358 53.384 93.4478 53.384C91.2718 53.384 89.2878 52.824 87.4958 51.704C85.7038 50.552 84.2798 48.936 83.2238 46.856C82.1998 44.744 81.6878 42.312 81.6878 39.56ZM101.752 39.608C101.752 37.56 101.176 35.944 100.024 34.76C98.9038 33.576 97.5278 32.984 95.8958 32.984C94.2638 32.984 92.8718 33.576 91.7198 34.76C90.5998 35.912 90.0398 37.512 90.0398 39.56C90.0398 41.608 90.5998 43.24 91.7198 44.456C92.8718 45.64 94.2638 46.232 95.8958 46.232C97.5278 46.232 98.9038 45.64 100.024 44.456C101.176 43.272 101.752 41.656 101.752 39.608ZM124.106 30.68C125.066 29.208 126.266 28.056 127.706 27.224C129.146 26.36 130.746 25.928 132.506 25.928V34.616H130.25C128.202 34.616 126.666 35.064 125.642 35.96C124.618 36.824 124.106 38.36 124.106 40.568V53H115.898V26.216H124.106V30.68ZM151.357 46.04V53H147.181C144.205 53 141.885 52.28 140.221 50.84C138.557 49.368 137.725 46.984 137.725 43.688V33.032H134.461V26.216H137.725V19.688H145.933V26.216H151.309V33.032H145.933V43.784C145.933 44.584 146.125 45.16 146.509 45.512C146.893 45.864 147.533 46.04 148.429 46.04H151.357Z" fill="black"/>
<path d="M181.08 15.152V32H176.976V25.064H170.592V32H166.488V15.152H170.592V21.752H176.976V15.152H181.08ZM196.667 25.088C196.667 25.472 196.643 25.872 196.595 26.288H187.307C187.371 27.12 187.635 27.76 188.099 28.208C188.579 28.64 189.163 28.856 189.851 28.856C190.875 28.856 191.587 28.424 191.987 27.56H196.355C196.131 28.44 195.723 29.232 195.131 29.936C194.555 30.64 193.827 31.192 192.947 31.592C192.067 31.992 191.083 32.192 189.995 32.192C188.683 32.192 187.515 31.912 186.491 31.352C185.467 30.792 184.667 29.992 184.091 28.952C183.515 27.912 183.227 26.696 183.227 25.304C183.227 23.912 183.507 22.696 184.067 21.656C184.643 20.616 185.443 19.816 186.467 19.256C187.491 18.696 188.667 18.416 189.995 18.416C191.291 18.416 192.443 18.688 193.451 19.232C194.459 19.776 195.243 20.552 195.803 21.56C196.379 22.568 196.667 23.744 196.667 25.088ZM192.467 24.008C192.467 23.304 192.227 22.744 191.747 22.328C191.267 21.912 190.667 21.704 189.947 21.704C189.259 21.704 188.675 21.904 188.195 22.304C187.731 22.704 187.443 23.272 187.331 24.008H192.467ZM198.016 25.28C198.016 23.904 198.272 22.696 198.784 21.656C199.312 20.616 200.024 19.816 200.92 19.256C201.816 18.696 202.816 18.416 203.92 18.416C204.864 18.416 205.688 18.608 206.392 18.992C207.112 19.376 207.664 19.88 208.048 20.504V18.608H212.152V32H208.048V30.104C207.648 30.728 207.088 31.232 206.368 31.616C205.664 32 204.84 32.192 203.896 32.192C202.808 32.192 201.816 31.912 200.92 31.352C200.024 30.776 199.312 29.968 198.784 28.928C198.272 27.872 198.016 26.656 198.016 25.28ZM208.048 25.304C208.048 24.28 207.76 23.472 207.184 22.88C206.624 22.288 205.936 21.992 205.12 21.992C204.304 21.992 203.608 22.288 203.032 22.88C202.472 23.456 202.192 24.256 202.192 25.28C202.192 26.304 202.472 27.12 203.032 27.728C203.608 28.32 204.304 28.616 205.12 28.616C205.936 28.616 206.624 28.32 207.184 27.728C207.76 27.136 208.048 26.328 208.048 25.304ZM219.225 14.24V32H215.121V14.24H219.225ZM229.663 28.52V32H227.575C226.087 32 224.927 31.64 224.095 30.92C223.263 30.184 222.847 28.992 222.847 27.344V22.016H221.215V18.608H222.847V15.344H226.951V18.608H229.639V22.016H226.951V27.392C226.951 27.792 227.047 28.08 227.239 28.256C227.431 28.432 227.751 28.52 228.199 28.52H229.663ZM240.181 18.464C241.717 18.464 242.949 18.976 243.877 20C244.805 21.008 245.269 22.4 245.269 24.176V32H241.189V24.728C241.189 23.832 240.957 23.136 240.493 22.64C240.029 22.144 239.405 21.896 238.621 21.896C237.837 21.896 237.213 22.144 236.749 22.64C236.285 23.136 236.053 23.832 236.053 24.728V32H231.949V14.24H236.053V20.408C236.469 19.816 237.037 19.344 237.757 18.992C238.477 18.64 239.285 18.464 240.181 18.464Z" fill="black"/>
<path d="M185.568 36.152V53H181.464V42.896L177.696 53H174.384L170.592 42.872V53H166.488V36.152H171.336L176.064 47.816L180.744 36.152H185.568ZM194.615 53.192C193.303 53.192 192.119 52.912 191.063 52.352C190.023 51.792 189.199 50.992 188.591 49.952C187.999 48.912 187.703 47.696 187.703 46.304C187.703 44.928 188.007 43.72 188.615 42.68C189.223 41.624 190.055 40.816 191.111 40.256C192.167 39.696 193.351 39.416 194.663 39.416C195.975 39.416 197.159 39.696 198.215 40.256C199.271 40.816 200.103 41.624 200.711 42.68C201.319 43.72 201.623 44.928 201.623 46.304C201.623 47.68 201.311 48.896 200.687 49.952C200.079 50.992 199.239 51.792 198.167 52.352C197.111 52.912 195.927 53.192 194.615 53.192ZM194.615 49.64C195.399 49.64 196.063 49.352 196.607 48.776C197.167 48.2 197.447 47.376 197.447 46.304C197.447 45.232 197.175 44.408 196.631 43.832C196.103 43.256 195.447 42.968 194.663 42.968C193.863 42.968 193.199 43.256 192.671 43.832C192.143 44.392 191.879 45.216 191.879 46.304C191.879 47.376 192.135 48.2 192.647 48.776C193.175 49.352 193.831 49.64 194.615 49.64ZM211.961 39.464C213.529 39.464 214.777 39.976 215.705 41C216.649 42.008 217.121 43.4 217.121 45.176V53H213.041V45.728C213.041 44.832 212.809 44.136 212.345 43.64C211.881 43.144 211.257 42.896 210.473 42.896C209.689 42.896 209.065 43.144 208.601 43.64C208.137 44.136 207.905 44.832 207.905 45.728V53H203.801V39.608H207.905V41.384C208.321 40.792 208.881 40.328 209.585 39.992C210.289 39.64 211.081 39.464 211.961 39.464ZM222.036 38.216C221.316 38.216 220.724 38.008 220.26 37.592C219.812 37.16 219.588 36.632 219.588 36.008C219.588 35.368 219.812 34.84 220.26 34.424C220.724 33.992 221.316 33.776 222.036 33.776C222.74 33.776 223.316 33.992 223.764 34.424C224.228 34.84 224.46 35.368 224.46 36.008C224.46 36.632 224.228 37.16 223.764 37.592C223.316 38.008 222.74 38.216 222.036 38.216ZM224.076 39.608V53H219.972V39.608H224.076ZM234.515 49.52V53H232.427C230.939 53 229.779 52.64 228.947 51.92C228.115 51.184 227.699 49.992 227.699 48.344V43.016H226.067V39.608H227.699V36.344H231.803V39.608H234.491V43.016H231.803V48.392C231.803 48.792 231.899 49.08 232.091 49.256C232.283 49.432 232.603 49.52 233.051 49.52H234.515ZM242.897 53.192C241.585 53.192 240.401 52.912 239.345 52.352C238.305 51.792 237.481 50.992 236.873 49.952C236.281 48.912 235.985 47.696 235.985 46.304C235.985 44.928 236.289 43.72 236.896 42.68C237.505 41.624 238.337 40.816 239.393 40.256C240.449 39.696 241.633 39.416 242.945 39.416C244.257 39.416 245.441 39.696 246.497 40.256C247.553 40.816 248.385 41.624 248.993 42.68C249.601 43.72 249.905 44.928 249.905 46.304C249.905 47.68 249.593 48.896 248.969 49.952C248.361 50.992 247.521 51.792 246.449 52.352C245.393 52.912 244.209 53.192 242.897 53.192ZM242.897 49.64C243.681 49.64 244.345 49.352 244.889 48.776C245.449 48.2 245.729 47.376 245.729 46.304C245.729 45.232 245.457 44.408 244.913 43.832C244.385 43.256 243.729 42.968 242.945 42.968C242.145 42.968 241.481 43.256 240.953 43.832C240.425 44.392 240.161 45.216 240.161 46.304C240.161 47.376 240.417 48.2 240.929 48.776C241.457 49.352 242.113 49.64 242.897 49.64ZM256.186 41.84C256.666 41.104 257.266 40.528 257.986 40.112C258.706 39.68 259.506 39.464 260.386 39.464V43.808H259.258C258.234 43.808 257.466 44.032 256.954 44.48C256.442 44.912 256.186 45.68 256.186 46.784V53H252.082V39.608H256.186V41.84ZM264.411 38.216C263.691 38.216 263.099 38.008 262.635 37.592C262.187 37.16 261.963 36.632 261.963 36.008C261.963 35.368 262.187 34.84 262.635 34.424C263.099 33.992 263.691 33.776 264.411 33.776C265.115 33.776 265.691 33.992 266.139 34.424C266.603 34.84 266.835 35.368 266.835 36.008C266.835 36.632 266.603 37.16 266.139 37.592C265.691 38.008 265.115 38.216 264.411 38.216ZM266.451 39.608V53H262.347V39.608H266.451ZM277.586 39.464C279.154 39.464 280.402 39.976 281.33 41C282.274 42.008 282.746 43.4 282.746 45.176V53H278.666V45.728C278.666 44.832 278.434 44.136 277.97 43.64C277.506 43.144 276.882 42.896 276.098 42.896C275.314 42.896 274.69 43.144 274.226 43.64C273.762 44.136 273.53 44.832 273.53 45.728V53H269.426V39.608H273.53V41.384C273.946 40.792 274.506 40.328 275.21 39.992C275.914 39.64 276.706 39.464 277.586 39.464ZM290.685 39.416C291.629 39.416 292.453 39.608 293.157 39.992C293.877 40.376 294.429 40.88 294.813 41.504V39.608H298.917V52.976C298.917 54.208 298.669 55.32 298.173 56.312C297.693 57.32 296.949 58.12 295.941 58.712C294.949 59.304 293.709 59.6 292.221 59.6C290.237 59.6 288.629 59.128 287.397 58.184C286.165 57.256 285.461 55.992 285.285 54.392H289.341C289.469 54.904 289.773 55.304 290.253 55.592C290.733 55.896 291.325 56.048 292.029 56.048C292.877 56.048 293.549 55.8 294.045 55.304C294.557 54.824 294.813 54.048 294.813 52.976V51.08C294.413 51.704 293.861 52.216 293.157 52.616C292.453 53 291.629 53.192 290.685 53.192C289.581 53.192 288.581 52.912 287.685 52.352C286.789 51.776 286.077 50.968 285.549 49.928C285.037 48.872 284.781 47.656 284.781 46.28C284.781 44.904 285.037 43.696 285.549 42.656C286.077 41.616 286.789 40.816 287.685 40.256C288.581 39.696 289.581 39.416 290.685 39.416ZM294.813 46.304C294.813 45.28 294.525 44.472 293.949 43.88C293.389 43.288 292.701 42.992 291.885 42.992C291.069 42.992 290.373 43.288 289.797 43.88C289.237 44.456 288.957 45.256 288.957 46.28C288.957 47.304 289.237 48.12 289.797 48.728C290.373 49.32 291.069 49.616 291.885 49.616C292.701 49.616 293.389 49.32 293.949 48.728C294.525 48.136 294.813 47.328 294.813 46.304Z" fill="black"/>
</svg>
